<svg width="1440" height="549" viewBox="0 0 1440 549" fill="none" xmlns="http://www.w3.org/2000/svg">
    <path fill="#F8F7F9" d="M1440 0H0v549h1440z"/>
    <g clip-path="url(#sgk5f9dewa)" stroke="#000" stroke-width=".49" stroke-miterlimit="10" opacity=".4">
        <path d="M0 269.697c146.105 0 264.543-120.451 264.543-269.014"/>
        <path d="M0 259.61c140.646 0 254.645-115.951 254.645-258.965"/>
        <path d="M0 249.523c135.187 0 244.76-111.439 244.76-248.904"/>
        <path d="M0 239.435c129.729 0 234.874-106.938 234.874-238.904"/>
        <path d="M0 229.348c124.258 0 224.989-102.387 224.989-228.792"/>
        <path d="M0 219.261c118.799 0 215.116-97.938 215.116-218.68"/>
        <path d="M0 209.174c54.43-.02 106.622-22.018 145.098-61.155C183.574 108.882 205.182 55.812 205.169.48"/>
        <path d="M0 199.1a192.603 192.603 0 0 0 74.762-15.133c23.702-9.985 45.236-24.619 63.375-43.065 18.138-18.445 32.525-40.343 42.339-64.44A201.48 201.48 0 0 0 195.333.454"/>
        <path d="M0 189.013a182.857 182.857 0 0 0 70.98-14.368c22.501-9.48 42.946-23.374 60.167-40.886 17.22-17.513 30.879-38.302 40.196-61.181A191.29 191.29 0 0 0 185.448.418"/>
        <path d="M0 178.926c46.57-.011 91.228-18.825 124.152-52.307 32.924-33.48 51.417-78.886 51.41-126.227"/>
        <path d="M0 168.839c43.948-.011 86.092-17.767 117.162-49.363C148.232 87.879 165.683 45.03 165.677.354"/>
        <path d="M0 158.751a153.597 153.597 0 0 0 59.627-12.067c18.903-7.963 36.078-19.633 50.544-34.344 14.467-14.711 25.942-32.175 33.769-51.393A160.654 160.654 0 0 0 155.791.329"/>
        <path d="M0 148.664a143.85 143.85 0 0 0 55.843-11.302c17.704-7.458 33.79-18.388 47.338-32.166 13.549-13.778 24.295-30.133 31.626-48.133A150.484 150.484 0 0 0 145.906.291"/>
        <path d="M0 138.577a134.11 134.11 0 0 0 52.063-10.533c16.505-6.953 31.501-17.143 44.132-29.988 12.631-12.845 22.649-28.093 29.483-44.874A140.284 140.284 0 0 0 136.021.252"/>
        <path d="M0 128.503a124.376 124.376 0 0 0 48.278-9.772c15.305-6.448 29.21-15.898 40.923-27.81 11.713-11.911 21.003-26.051 27.34-41.612A130.104 130.104 0 0 0 126.135.228"/>
        <path d="M0 118.416a114.62 114.62 0 0 0 44.496-9.004c14.107-5.943 26.924-14.652 37.719-25.63 10.795-10.98 19.357-24.012 25.197-38.355A119.885 119.885 0 0 0 116.25.19"/>
        <path d="M0 108.329a104.877 104.877 0 0 0 40.71-8.238 106.28 106.28 0 0 0 34.51-23.449 108.276 108.276 0 0 0 23.055-35.09A109.682 109.682 0 0 0 106.364.164"/>
        <path d="M0 98.292c25.592-.007 50.134-10.347 68.227-28.747C86.32 51.145 96.482 26.193 96.479.177"/>
        <path d="M0 88.18a85.382 85.382 0 0 0 33.163-6.695 86.527 86.527 0 0 0 28.114-19.092 88.154 88.154 0 0 0 18.781-28.58A89.31 89.31 0 0 0 86.643.101"/>
        <path d="M0 78.067c20.346-.006 39.855-8.228 54.238-22.856C68.621 40.583 76.7 20.746 76.696.063"/>
        <path d="M0 67.955a65.878 65.878 0 0 0 25.575-5.172 66.761 66.761 0 0 0 21.68-14.729A68.016 68.016 0 0 0 61.74 26.012a68.909 68.909 0 0 0 5.083-26"/>
        <path d="M0 57.843a56.145 56.145 0 0 0 21.793-4.412 56.9 56.9 0 0 0 18.473-12.554 57.968 57.968 0 0 0 12.341-18.784 58.728 58.728 0 0 0 4.33-22.156"/>
    </g>
    <g clip-path="url(#jqyqavq54b)" stroke="#000" stroke-width=".49" stroke-miterlimit="10" opacity=".2">
        <path d="M1442.58 265.701c-143.94 0-260.62-118.666-260.62-265.029"/>
        <path d="M1442.58 255.763c-138.56 0-250.87-114.233-250.87-255.128"/>
        <path d="M1442.58 245.97c-133.18 0-241.13-109.788-241.13-245.216"/>
        <path d="M1442.58 235.888c-127.8 0-231.39-105.354-231.39-235.365"/>
        <path d="M1442.58 225.95c-122.41 0-221.65-100.87-221.65-225.402"/>
        <path d="M1442.58 216.013c-117.03 0-211.92-96.487-211.92-215.44"/>
        <path d="M1442.58 206.075c-53.62-.02-105.04-21.691-142.94-60.249-37.91-38.557-59.2-90.841-59.18-145.353"/>
        <path d="M1442.58 196.15a189.769 189.769 0 0 1-73.65-14.908c-23.35-9.838-44.57-24.255-62.44-42.427-17.86-18.173-32.04-39.745-41.71-63.486a198.343 198.343 0 0 1-14.63-74.88"/>
        <path d="M1442.58 186.212a180.134 180.134 0 0 1-69.92-14.154c-22.17-9.34-42.31-23.028-59.28-40.281-16.96-17.253-30.42-37.734-39.6-60.274A188.516 188.516 0 0 1 1259.88.41"/>
        <path d="M1442.58 176.275c-45.87-.01-89.87-18.546-122.31-51.532-32.43-32.985-50.65-77.717-50.65-124.357"/>
        <path d="M1442.58 166.337c-43.29-.01-84.81-17.503-115.42-48.632-30.61-31.128-47.8-73.342-47.8-117.356"/>
        <path d="M1442.58 156.399a151.328 151.328 0 0 1-58.74-11.888c-18.62-7.845-35.54-19.342-49.79-33.835-14.26-14.493-25.56-31.698-33.27-50.632A158.394 158.394 0 0 1 1289.1.324"/>
        <path d="M1442.58 146.462a141.694 141.694 0 0 1-55.01-11.135c-17.44-7.347-33.29-18.116-46.64-31.689-13.35-13.574-23.93-29.687-31.16-47.42A148.354 148.354 0 0 1 1298.84.286"/>
        <path d="M1442.58 136.524a132.122 132.122 0 0 1-51.29-10.377c-16.26-6.85-31.03-16.889-43.48-29.544-12.44-12.654-22.31-27.677-29.04-44.21A138.141 138.141 0 0 1 1308.58.25"/>
        <path d="M1442.58 126.599a122.546 122.546 0 0 1-47.56-9.627 124.043 124.043 0 0 1-40.31-27.398 126.46 126.46 0 0 1-26.94-40.996 128.293 128.293 0 0 1-9.45-48.354"/>
        <path d="M1442.58 116.661a112.89 112.89 0 0 1-43.83-8.87 114.362 114.362 0 0 1-37.16-25.251c-10.64-10.816-19.07-23.656-24.83-37.786a118.07 118.07 0 0 1-8.7-44.567"/>
        <path d="M1442.58 106.724a103.292 103.292 0 0 1-40.1-8.116c-12.72-5.356-24.27-13.206-34-23.101a106.602 106.602 0 0 1-22.71-34.57A107.836 107.836 0 0 1 1337.8.162"/>
        <path d="M1442.58 96.836c-25.21-.007-49.39-10.194-67.21-28.321-17.83-18.127-27.84-42.71-27.83-68.34"/>
        <path d="M1442.58 86.873a84.116 84.116 0 0 1-32.67-6.595 85.117 85.117 0 0 1-27.69-18.81 86.855 86.855 0 0 1-18.51-28.156A87.84 87.84 0 0 1 1357.23.1"/>
        <path d="M1442.58 76.91c-20.04-.006-39.26-8.106-53.43-22.517-14.17-14.412-22.13-33.955-22.12-54.33"/>
        <path d="M1442.58 66.948c-8.64 0-17.2-1.731-25.19-5.095a65.719 65.719 0 0 1-21.36-14.51 67.099 67.099 0 0 1-14.27-21.716 67.875 67.875 0 0 1-5.01-25.615"/>
        <path d="M1442.58 56.986a55.356 55.356 0 0 1-21.47-4.347 55.991 55.991 0 0 1-18.19-12.367 57.124 57.124 0 0 1-12.16-18.507 57.856 57.856 0 0 1-4.27-21.827"/>
    </g>
    <defs>
        <clipPath id="sgk5f9dewa">
            <path fill="#fff" transform="matrix(0 -1 -1 0 264.842 270)" d="M0 0h270v264.841H0z"/>
        </clipPath>
        <clipPath id="jqyqavq54b">
            <path fill="#fff" transform="rotate(-90 723.835 -457.835)" d="M0 0h266v260.918H0z"/>
        </clipPath>
    </defs>
</svg>
