<svg width="646" height="586" viewBox="0 0 646 586" fill="none" xmlns="http://www.w3.org/2000/svg">
    <path fill="#1A66E6" d="M0 1h646v584H0z"/>
    <g opacity=".36" stroke="#fff" stroke-width=".49" stroke-miterlimit="10">
        <path d="M650.181 293.63c0 160.921-130.49 291.37-291.466 291.37"/>
        <path d="M638.566 293.63c0 154.525-125.313 279.784-279.893 279.784"/>
        <path d="M626.952 293.63c0 148.13-120.122 268.211-268.306 268.211"/>
        <path d="M615.325 293.63c0 141.734-114.932 256.638-256.721 256.638"/>
        <path d="M603.711 293.63c0 135.352-109.755 245.066-245.148 245.066"/>
        <path d="M592.098 293.63c0 128.956-104.565 233.479-233.562 233.479"/>
        <path d="M580.484 293.63a221.946 221.946 0 0 1-221.975 221.866"/>
        <path d="M568.87 293.63a210.349 210.349 0 0 1-61.637 148.745 210.359 210.359 0 0 1-148.765 61.589"/>
        <path d="M557.257 293.63A198.792 198.792 0 0 1 358.44 492.378"/>
        <path d="M545.643 293.63a187.207 187.207 0 0 1-115.598 172.94 187.204 187.204 0 0 1-71.646 14.235"/>
        <path d="M534.016 293.63a175.623 175.623 0 0 1-51.456 124.185 175.625 175.625 0 0 1-124.202 51.418"/>
        <path d="M522.402 293.63a164.056 164.056 0 0 1-164.071 164.03"/>
        <path d="M510.789 293.63a152.462 152.462 0 0 1-94.146 140.852 152.478 152.478 0 0 1-58.353 11.592"/>
        <path d="M499.175 293.63a140.9 140.9 0 0 1-140.912 140.871"/>
        <path d="M487.56 293.63a129.317 129.317 0 0 1-79.849 119.464 129.304 129.304 0 0 1-49.49 9.834"/>
        <path d="M475.947 293.63a117.781 117.781 0 0 1-117.781 117.712"/>
        <path d="M464.333 293.63a106.16 106.16 0 0 1-31.106 75.062 106.14 106.14 0 0 1-75.075 31.077"/>
        <path d="M452.706 293.63a94.571 94.571 0 0 1-94.581 94.594"/>
        <path d="M441.092 293.63a82.994 82.994 0 0 1-83.008 82.994"/>
        <path d="M429.478 293.63a71.435 71.435 0 0 1-20.928 50.499 71.43 71.43 0 0 1-50.507 20.909"/>
        <path d="M417.933 293.63a59.849 59.849 0 0 1-59.849 59.835"/>
        <path d="M406.251 293.63a48.28 48.28 0 0 1-48.276 48.263M357.372 292.356C357.372 131.449 487.862 1 648.824 1"/>
        <path d="M366.712 292.219c0-155.73 126.299-281.988 282.125-281.988"/>
        <path d="M376.053 292.165c0-150.568 122.094-272.621 272.717-272.621"/>
        <path d="M385.406 292.096c0-145.391 117.89-263.24 263.336-263.24"/>
        <path d="M394.747 292.027c0-140.2 113.672-253.872 253.968-253.872"/>
        <path d="M404.087 291.973c0-135.037 109.563-244.504 244.6-244.504"/>
        <path d="M413.441 291.904c0-129.86 105.304-235.136 235.205-235.136"/>
        <path d="M422.781 291.835A225.794 225.794 0 0 1 562.207 83.252a225.8 225.8 0 0 1 86.412-17.172"/>
        <path d="M432.121 291.768c0-28.424 5.6-56.569 16.48-82.827A216.369 216.369 0 0 1 565.758 91.828a216.39 216.39 0 0 1 82.833-16.448"/>
        <path d="M441.476 291.712a207.06 207.06 0 0 1 207.088-207.02"/>
        <path d="M450.803 291.644a197.675 197.675 0 0 1 122.069-182.606 197.667 197.667 0 0 1 75.651-15.032"/>
        <path d="M460.17 291.575a188.31 188.31 0 0 1 188.339-188.216"/>
        <path d="M469.51 291.52a178.921 178.921 0 0 1 52.432-126.519 178.922 178.922 0 0 1 126.539-52.384"/>
        <path d="M478.851 291.453a169.57 169.57 0 0 1 49.687-119.887 169.571 169.571 0 0 1 119.903-49.649"/>
        <path d="M488.204 291.384A160.235 160.235 0 0 1 648.44 131.229"/>
        <path d="M497.545 291.329a150.819 150.819 0 0 1 150.841-150.787"/>
        <path d="M506.953 291.261a141.417 141.417 0 0 1 10.773-54.126 141.422 141.422 0 0 1 76.558-76.536 141.412 141.412 0 0 1 54.129-10.757"/>
        <path d="M516.239 291.192a132.057 132.057 0 0 1 38.701-93.376 132.07 132.07 0 0 1 93.391-38.662"/>
        <path d="M525.579 291.138a122.709 122.709 0 0 1 122.725-122.684"/>
        <path d="M534.934 291.069a113.302 113.302 0 0 1 33.203-80.127 113.317 113.317 0 0 1 80.14-33.175"/>
        <path d="M544.273 290.986a103.964 103.964 0 0 1 103.976-103.934"/>
        <path d="M553.613 290.987a94.584 94.584 0 0 1 58.399-87.373 94.587 94.587 0 0 1 36.196-7.194M66.509 585c0-160.921 130.503-291.37 291.466-291.37"/>
        <path d="M77.438 585c0-154.909 125.628-280.469 280.578-280.469"/>
        <path d="M88.366 585c0-148.897 120.739-269.581 269.677-269.581"/>
        <path d="M99.296 584.999c0-142.884 115.863-258.692 258.843-258.692"/>
        <path d="M110.225 585c0-136.858 110.932-247.805 247.887-247.805"/>
        <path d="M121.153 585c0-130.846 106.113-236.931 236.931-236.931"/>
        <path d="M132.083 585a226.057 226.057 0 0 1 226.111-225.975"/>
        <path d="M142.998 585a215.176 215.176 0 0 1 63.055-152.145 215.168 215.168 0 0 1 152.169-62.997"/>
        <path d="M153.927 585a204.28 204.28 0 0 1 15.567-78.177 204.306 204.306 0 0 1 188.768-126.077"/>
        <path d="M164.855 585a193.41 193.41 0 0 1 193.434-193.365"/>
        <path d="M175.784 585A182.519 182.519 0 0 1 358.33 402.522"/>
        <path d="M186.714 585a171.604 171.604 0 0 1 50.285-121.344 171.628 171.628 0 0 1 121.36-50.246"/>
        <path d="M197.643 585a160.72 160.72 0 0 1 47.095-113.645 160.728 160.728 0 0 1 113.661-47.057"/>
        <path d="M208.571 585A149.83 149.83 0 0 1 358.44 435.186"/>
    </g>
</svg>
