<svg width="1440" height="620" viewBox="0 0 1440 620" fill="none" xmlns="http://www.w3.org/2000/svg">
    <mask id="ckrjtje4wa" style="mask-type:alpha" maskUnits="userSpaceOnUse" x="0" y="0" width="1440" height="620">
        <path fill="#C4C4C4" d="M0 0h1440v620H0z"/>
    </mask>
    <g mask="url(#ckrjtje4wa)">
        <path fill="#F8F7F9" d="M1440 0H0v620h1440z"/>
        <g opacity=".8">
            <g clip-path="url(#v0ghhpp54b)" stroke="#000" stroke-width=".49" stroke-miterlimit="10" opacity=".4">
                <path d="M-17 480.653c260.388 0 471.468-214.668 471.468-479.437"/>
                <path d="M-17 462.676c250.659 0 453.828-206.648 453.828-461.527"/>
                <path d="M-17 444.698c240.931 0 436.211-198.605 436.211-443.594"/>
                <path d="M-17 426.721c231.202 0 418.593-190.585 418.593-425.775"/>
                <path d="M-17 408.744c221.452 0 400.975-182.475 400.975-407.753"/>
                <path d="M-17 390.767c211.723 0 383.38-174.546 383.38-389.73"/>
                <path d="M-17 372.79c97.004-.036 190.022-39.24 258.594-108.99C310.165 194.05 348.675 99.467 348.651.856"/>
                <path d="M-17 354.835c45.725-.009 91-9.173 133.241-26.969 42.241-17.796 80.62-43.876 112.946-76.75 32.326-32.874 57.966-71.899 75.456-114.847 17.49-42.947 26.488-88.976 26.479-135.458"/>
                <path d="M-17 336.858c43.411-.009 86.395-8.71 126.499-25.606 40.103-16.896 76.54-41.657 107.23-72.868 30.69-31.211 55.033-68.261 71.637-109.036C304.971 88.574 313.513 44.874 313.504.743"/>
                <path d="M-17 318.881c82.996-.018 162.587-33.55 221.264-93.22C262.941 165.99 295.898 85.07 295.886.698"/>
                <path d="M-17 300.903c78.324-.017 153.433-31.663 208.806-87.974C247.179 156.617 278.28 80.252 278.269.631"/>
                <path d="M-17 282.926c36.468-.006 72.577-7.313 106.266-21.505 33.689-14.193 64.299-34.991 90.081-61.209 25.783-26.218 46.232-57.341 60.183-91.593C253.48 74.367 260.657 37.657 260.651.586"/>
                <path d="M-17 264.949c34.154-.006 67.972-6.85 99.524-20.142 31.552-13.292 60.219-32.772 84.366-57.327 24.146-24.554 43.298-53.703 56.363-85.782 13.065-32.08 19.786-66.46 19.78-101.18"/>
                <path d="M-17 246.972a239.014 239.014 0 0 0 92.785-18.773c29.416-12.391 56.143-30.551 78.654-53.443 22.511-22.893 40.365-50.069 52.543-79.976 12.179-29.907 18.442-61.961 18.434-94.33"/>
                <path d="M-17 229.017a221.65 221.65 0 0 0 86.04-17.415c27.277-11.492 52.06-28.334 72.934-49.562 20.875-21.229 37.432-46.429 48.726-74.162A231.853 231.853 0 0 0 207.798.406"/>
                <path d="M-17 211.04a204.274 204.274 0 0 0 79.301-16.046c25.141-10.591 47.983-26.113 67.222-45.679 19.239-19.566 34.498-42.793 44.906-68.355A213.656 213.656 0 0 0 190.18.338"/>
                <path d="M-17 193.063a186.916 186.916 0 0 0 72.554-14.681c23.002-9.69 43.901-23.89 61.504-41.791 17.603-17.9 31.564-39.15 41.088-62.537A195.507 195.507 0 0 0 172.562.293"/>
                <path d="M-17 175.176c45.61-.012 89.349-18.441 121.594-51.233C136.839 91.151 154.95 46.682 154.945.315"/>
                <path d="M-17 157.154a152.175 152.175 0 0 0 59.103-11.931c18.738-7.886 35.764-19.448 50.105-34.026 14.34-14.578 25.714-31.886 33.471-50.935A159.18 159.18 0 0 0 137.416.18"/>
                <path d="M-17 139.132c36.26-.012 71.03-14.665 96.663-40.735 25.633-26.07 40.03-61.424 40.024-98.284"/>
                <path d="M-17 121.109c15.641 0 31.13-3.132 45.58-9.217 14.45-6.086 27.58-15.005 38.638-26.25 11.06-11.244 19.83-24.592 25.814-39.283A122.806 122.806 0 0 0 102.091.023"/>
                <path d="M-17 103.087a100.071 100.071 0 0 0 38.84-7.862A101.404 101.404 0 0 0 54.761 72.85a103.307 103.307 0 0 0 21.994-33.478A104.663 104.663 0 0 0 84.474-.113"/>
            </g>
        </g>
    </g>
    <defs>
        <clipPath id="v0ghhpp54b">
            <path fill="#fff" transform="matrix(0 -1 -1 0 455 481.193)" d="M0 0h481.193v472H0z"/>
        </clipPath>
    </defs>
</svg>
