<svg width="1438" height="383" viewBox="0 0 1438 383" fill="none" xmlns="http://www.w3.org/2000/svg">
    <mask id="hd19nt4lca" style="mask-type:alpha" maskUnits="userSpaceOnUse" x="0" y="0" width="1438" height="383">
        <path fill="#C4C4C4" d="M0 0h1438v383H0z"/>
    </mask>
    <g mask="url(#hd19nt4lca)">
        <path fill="#1A66E6" d="M-2 0h1440v382H-2z"/>
        <g opacity=".36" stroke="#fff" stroke-width=".49" stroke-miterlimit="10">
            <path d="M483 251.683c0 138.404-112.231 250.6-250.682 250.6"/>
            <path d="M473.011 251.683c0 132.903-107.778 240.634-240.728 240.634"/>
            <path d="M463.023 251.683c0 127.402-103.314 230.681-230.764 230.681"/>
            <path d="M453.022 251.683c0 121.902-98.85 220.728-220.798 220.728"/>
            <path d="M443.034 251.683c0 116.412-94.398 210.775-210.846 210.775"/>
            <path d="M433.045 251.683c0 110.912-89.933 200.809-200.88 200.809"/>
            <path d="M423.056 251.683a190.892 190.892 0 0 1-190.915 190.821"/>
            <path d="M413.068 251.683a180.947 180.947 0 0 1-53.013 127.932 180.942 180.942 0 0 1-127.949 52.971"/>
            <path d="M403.079 251.683a170.972 170.972 0 0 1-170.996 170.938"/>
            <path d="M393.09 251.683a161.006 161.006 0 0 1-161.043 160.984"/>
            <path d="M383.09 251.683a151.041 151.041 0 0 1-151.078 151.031"/>
            <path d="M373.101 251.683a141.1 141.1 0 0 1-141.113 141.078"/>
            <path d="M363.113 251.683a131.143 131.143 0 0 1-9.988 50.184 131.14 131.14 0 0 1-121.172 80.929"/>
            <path d="M353.124 251.683a121.18 121.18 0 0 1-121.195 121.159"/>
            <path d="M343.135 251.683a111.216 111.216 0 0 1-111.241 111.206"/>
            <path d="M333.147 251.683a101.302 101.302 0 0 1-101.3 101.241"/>
            <path d="M323.158 251.683a91.315 91.315 0 0 1-6.955 34.941 91.312 91.312 0 0 1-49.425 49.405 91.3 91.3 0 0 1-34.943 6.942"/>
            <path d="M313.158 251.683a81.33 81.33 0 0 1-23.818 57.532 81.343 81.343 0 0 1-57.529 23.826"/>
            <path d="M303.169 251.683a71.38 71.38 0 0 1-71.393 71.381"/>
            <path d="M293.181 251.683a61.432 61.432 0 0 1-61.44 61.416"/>
            <path d="M283.251 251.683a51.474 51.474 0 0 1-51.475 51.463"/>
            <path d="M273.203 251.683a41.521 41.521 0 0 1-41.521 41.509M231.164 250.588C231.164 112.196 343.395 0 481.834 0"/>
            <path d="M239.197 250.47c0-133.94 108.626-242.53 242.648-242.53"/>
            <path d="M247.23 250.423c0-129.499 105.011-234.474 234.557-234.474"/>
            <path d="M255.275 250.364c0-125.047 101.395-226.405 226.488-226.405"/>
            <path d="M263.309 250.305c0-120.582 97.766-218.348 218.431-218.348"/>
            <path d="M271.342 250.258c0-116.142 94.232-210.292 210.374-210.292"/>
            <path d="M279.387 250.199c0-111.689 90.569-202.235 202.294-202.235"/>
            <path d="M287.421 250.14a194.186 194.186 0 0 1 56.905-137.311 194.202 194.202 0 0 1 137.331-56.855"/>
            <path d="M295.454 250.081A186.112 186.112 0 0 1 410.391 78.118a186.108 186.108 0 0 1 71.243-14.146"/>
            <path d="M303.499 250.034A178.084 178.084 0 0 1 481.61 71.982"/>
            <path d="M311.52 249.975A170.02 170.02 0 0 1 481.575 79.992"/>
            <path d="M319.577 249.916a161.962 161.962 0 0 1 161.986-161.88"/>
            <path d="M327.611 249.869a153.9 153.9 0 0 1 45.095-108.816 153.907 153.907 0 0 1 49.935-33.352 153.903 153.903 0 0 1 58.898-11.702"/>
            <path d="M335.644 249.81a145.846 145.846 0 0 1 145.86-145.813"/>
            <path d="M343.689 249.751a137.818 137.818 0 0 1 137.815-137.744"/>
            <path d="M351.722 249.704a129.696 129.696 0 0 1 9.883-49.636 129.696 129.696 0 0 1 70.212-70.187 129.724 129.724 0 0 1 49.64-9.864"/>
            <path d="M359.814 249.645a121.635 121.635 0 0 1 9.266-46.552 121.636 121.636 0 0 1 112.4-75.078"/>
            <path d="M367.801 249.586A113.585 113.585 0 0 1 481.41 136.025"/>
            <path d="M375.834 249.539a105.539 105.539 0 0 1 105.552-105.517"/>
            <path d="M383.879 249.48a97.471 97.471 0 0 1 28.558-68.915 97.456 97.456 0 0 1 68.926-28.533"/>
            <path d="M391.912 249.41a89.414 89.414 0 0 1 89.427-89.392"/>
            <path d="M399.946 249.41a81.343 81.343 0 0 1 81.358-81.335M-19 502.283c0-138.404 112.243-250.6 250.682-250.6"/>
            <path d="M-9.6 502.283c0-133.233 108.049-241.224 241.317-241.224"/>
            <path d="M-.2 502.283c0-128.062 103.844-231.859 231.941-231.859"/>
            <path d="M9.199 502.283c0-122.891 99.651-222.495 222.624-222.495"/>
            <path d="M18.599 502.283c0-117.709 95.41-213.131 213.201-213.131"/>
            <path d="M27.998 502.283c0-112.538 91.265-203.778 203.778-203.778"/>
            <path d="M37.398 502.282a194.426 194.426 0 0 1 194.473-194.354"/>
            <path d="M46.786 502.283a185.07 185.07 0 0 1 185.108-185.038"/>
            <path d="M56.186 502.283a175.704 175.704 0 0 1 108.5-162.312 175.7 175.7 0 0 1 67.243-13.361"/>
            <path d="M65.585 502.283a166.347 166.347 0 0 1 166.368-166.309"/>
            <path d="M74.985 502.283a156.98 156.98 0 0 1 157.003-156.945"/>
            <path d="M84.385 502.283a147.605 147.605 0 0 1 147.627-147.58"/>
            <path d="M93.784 502.283a138.24 138.24 0 0 1 138.263-138.216"/>
            <path d="M103.184 502.283a128.874 128.874 0 0 1 37.76-91.125 128.868 128.868 0 0 1 91.138-37.727"/>
        </g>
        <g opacity=".36" stroke="#fff" stroke-width=".49" stroke-miterlimit="10">
            <path d="M956 240.48C956 107.665 1063.7 0 1196.56 0"/>
            <path d="M965.585 240.48c0-127.536 103.425-230.917 231.005-230.917"/>
            <path d="M975.171 240.48c0-122.258 99.139-221.366 221.449-221.366"/>
            <path d="M984.767 240.48c0-116.979 94.863-211.814 211.883-211.814"/>
            <path d="M994.353 240.48c0-111.711 90.587-202.263 202.327-202.263"/>
            <path d="M1003.94 240.48c0-106.433 86.3-192.7 192.77-192.7"/>
            <path d="M1013.52 240.48a183.18 183.18 0 0 1 53.69-129.494 183.162 183.162 0 0 1 129.52-53.621"/>
            <path d="M1023.11 240.48c0-22.801 4.5-45.378 13.22-66.442a173.727 173.727 0 0 1 37.65-56.323 173.647 173.647 0 0 1 122.78-50.833"/>
            <path d="M1032.69 240.48a164.089 164.089 0 0 1 48.08-116 164.057 164.057 0 0 1 116.02-48.035"/>
            <path d="M1042.28 240.48c0-20.291 4-40.383 11.77-59.128a154.546 154.546 0 0 1 33.5-50.122 154.51 154.51 0 0 1 50.14-33.484 154.47 154.47 0 0 1 59.13-11.75"/>
            <path d="M1051.88 240.48c0-19.036 3.75-37.885 11.04-55.472a144.847 144.847 0 0 1 31.42-47.023 145.037 145.037 0 0 1 47.04-31.415 144.948 144.948 0 0 1 55.47-11.022"/>
            <path d="M1061.46 240.48a135.44 135.44 0 0 1 39.67-95.734 135.423 135.423 0 0 1 95.75-39.647"/>
            <path d="M1071.05 240.48c0-16.526 3.25-32.89 9.58-48.157a125.86 125.86 0 0 1 27.29-40.822 125.731 125.731 0 0 1 40.83-27.272 125.8 125.8 0 0 1 48.16-9.567"/>
            <path d="M1080.63 240.48a116.304 116.304 0 0 1 34.07-82.218 116.293 116.293 0 0 1 82.23-34.049"/>
            <path d="M1090.22 240.48c0-14.016 2.76-27.895 8.13-40.844a106.717 106.717 0 0 1 98.62-65.871"/>
            <path d="M1099.8 240.48a97.265 97.265 0 0 1 28.49-68.701 97.221 97.221 0 0 1 68.72-28.452"/>
            <path d="M1109.39 240.48c0-11.506 2.27-22.9 6.67-33.53a87.671 87.671 0 0 1 19-28.422 87.617 87.617 0 0 1 61.96-25.649"/>
            <path d="M1118.98 240.48a78.146 78.146 0 0 1 5.94-29.878 78.001 78.001 0 0 1 16.92-25.33 78.092 78.092 0 0 1 25.33-16.924 78.022 78.022 0 0 1 29.88-5.941"/>
            <path d="M1128.57 240.48c0-8.996 1.77-17.904 5.21-26.216a68.51 68.51 0 0 1 14.86-22.224 68.475 68.475 0 0 1 48.44-20.059"/>
            <path d="M1138.15 240.48a58.996 58.996 0 0 1 4.5-22.557 58.808 58.808 0 0 1 12.78-19.122 58.905 58.905 0 0 1 19.12-12.774 58.994 58.994 0 0 1 22.56-4.483"/>
            <path d="M1147.68 240.48a49.437 49.437 0 0 1 14.47-34.921 49.419 49.419 0 0 1 34.93-14.463"/>
            <path d="M1157.33 240.48a39.837 39.837 0 0 1 39.84-39.833M1197.67 241.531c0 132.804-107.7 240.469-240.551 240.469"/>
            <path d="M1189.96 241.644c0 128.531-104.24 232.738-232.852 232.738"/>
            <path d="M1182.25 241.69c0 124.269-100.77 225.005-225.086 225.005"/>
            <path d="M1174.53 241.746c0 119.997-97.3 217.263-217.343 217.263"/>
            <path d="M1166.82 241.803c0 115.713-93.82 209.531-209.61 209.531"/>
            <path d="M1159.11 241.848c0 111.451-90.43 201.8-201.878 201.8"/>
            <path d="M1151.39 241.904c0 107.179-86.91 194.069-194.124 194.069"/>
            <path d="M1143.68 241.961c0 24.473-4.83 48.706-14.2 71.314a186.348 186.348 0 0 1-40.41 60.452 186.274 186.274 0 0 1-60.46 40.387 186.356 186.356 0 0 1-71.321 14.172"/>
            <path d="M1135.97 242.017a178.582 178.582 0 0 1-52.33 126.309 178.626 178.626 0 0 1-57.96 38.71 178.627 178.627 0 0 1-68.369 13.575"/>
            <path d="M1128.25 242.063a170.887 170.887 0 0 1-170.916 170.862"/>
            <path d="M1120.55 242.119c0 21.426-4.22 42.641-12.43 62.434a162.997 162.997 0 0 1-35.38 52.923 163.15 163.15 0 0 1-52.93 35.356 163.197 163.197 0 0 1-62.442 12.407"/>
            <path d="M1112.82 242.176a155.41 155.41 0 0 1-155.441 155.342"/>
            <path d="M1105.11 242.221a147.53 147.53 0 0 1-11.25 56.515 147.531 147.531 0 0 1-32.02 47.907 147.719 147.719 0 0 1-47.92 32.005 147.66 147.66 0 0 1-56.518 11.229"/>
            <path d="M1097.41 242.277a139.958 139.958 0 0 1-139.974 139.925"/>
            <path d="M1089.69 242.334a132.258 132.258 0 0 1-38.76 93.471 132.258 132.258 0 0 1-93.494 38.711"/>
            <path d="M1081.98 242.379a124.505 124.505 0 0 1-76.86 114.984 124.495 124.495 0 0 1-47.639 9.467"/>
            <path d="M1074.21 242.436c0 15.33-3.02 30.51-8.89 44.672a116.772 116.772 0 0 1-25.31 37.869 116.673 116.673 0 0 1-37.88 25.3 116.707 116.707 0 0 1-44.672 8.878"/>
            <path d="M1066.55 242.492a109.141 109.141 0 0 1-8.31 41.71 109.022 109.022 0 0 1-23.63 35.357 109.025 109.025 0 0 1-77.084 31.909"/>
            <path d="M1058.84 242.537a101.281 101.281 0 0 1-101.291 101.256"/>
            <path d="M1051.12 242.594a93.353 93.353 0 0 1-7.13 35.792 93.431 93.431 0 0 1-20.28 30.34 93.526 93.526 0 0 1-66.139 27.381"/>
            <path d="M1043.41 242.662a85.832 85.832 0 0 1-25.14 60.662 85.824 85.824 0 0 1-60.676 25.119"/>
            <path d="M1035.7 242.662a77.934 77.934 0 0 1-5.95 29.872 77.978 77.978 0 0 1-16.92 25.322 78.066 78.066 0 0 1-55.202 22.856M1437.73 0c0 132.815-107.71 240.48-240.56 240.48"/>
            <path d="M1428.71 0c0 127.853-103.69 231.483-231.57 231.483"/>
            <path d="M1419.69 0c0 122.891-99.65 222.496-222.58 222.496"/>
            <path d="M1410.67 0c0 117.929-95.63 213.51-213.64 213.51"/>
            <path d="M1401.65 0c0 112.955-91.56 204.524-204.59 204.524"/>
            <path d="M1392.63 0c0 107.993-87.58 195.549-195.55 195.549"/>
            <path d="M1383.61 0a186.574 186.574 0 0 1-54.69 131.9 186.57 186.57 0 0 1-131.93 54.606"/>
            <path d="M1374.6 0a177.69 177.69 0 0 1-13.53 67.962 177.694 177.694 0 0 1-38.51 57.61 177.671 177.671 0 0 1-57.63 38.487 177.57 177.57 0 0 1-67.96 13.506"/>
            <path d="M1365.58 0a168.677 168.677 0 0 1-12.85 64.523 168.593 168.593 0 0 1-91.27 91.234 168.636 168.636 0 0 1-64.53 12.822"/>
            <path d="M1356.56 0a159.625 159.625 0 0 1-46.77 112.859 159.644 159.644 0 0 1-112.88 46.734"/>
            <path d="M1347.54 0a150.662 150.662 0 0 1-44.14 106.505 150.647 150.647 0 0 1-106.52 44.102"/>
            <path d="M1338.52 0c0 18.6-3.67 37.019-10.79 54.203a141.698 141.698 0 0 1-30.71 45.947 141.654 141.654 0 0 1-100.17 41.47"/>
            <path d="M1329.5 0c0 17.42-3.44 34.67-10.11 50.764a132.663 132.663 0 0 1-28.76 43.032 132.711 132.711 0 0 1-43.04 28.749 132.686 132.686 0 0 1-50.77 10.089"/>
            <path d="M1320.48 0a123.656 123.656 0 0 1-36.24 87.445 123.628 123.628 0 0 1-87.45 36.203"/>
        </g>
    </g>
</svg>
